<?xml version="1.0" encoding="UTF-8"?>
<svg version="1.1" xmlns="http://www.w3.org/2000/svg" width="500" height="500">
<path d="M0 0 C0.66829834 0.30848877 1.33659668 0.61697754 2.02514648 0.93481445 C7.14393973 3.42970515 12.24554328 6.27122239 14.625 11.625 C14.16475407 17.49313563 9.96453379 21.13704547 6.0625 25.25 C2.20302062 27.49388336 -1.17030856 28.0134978 -5.625 27.8125 C-9.63956761 26.65550256 -13.34039639 24.94321575 -17.125 23.1875 C-19.2668506 22.24906618 -21.41140293 21.31677488 -23.55859375 20.390625 C-24.59870605 19.94138672 -25.63881836 19.49214844 -26.71044922 19.02929688 C-68.5212661 1.5736836 -118.25173978 5.43155941 -159.625 21.8125 C-179.18752525 30.23807827 -198.05319266 42.11658181 -212.625 57.8125 C-217.625 62.8125 -217.625 62.8125 -219.359375 64.44140625 C-248.81110415 92.65616277 -265.9821016 135.17447233 -266.85742188 175.55737305 C-267.17281713 216.01995604 -252.68507932 257.99759273 -224.6640625 287.65234375 C-222.76510674 289.66407275 -221.01078319 291.7428668 -219.25 293.875 C-193.13277867 323.69763946 -149.85706374 339.70420866 -111.4375 343.5 C-64.6052122 346.57938331 -20.47727905 330.30202862 14.91113281 299.81005859 C47.4521047 271.16454733 70.42714653 228.42887211 73.375 184.8125 C74.97188736 152.23473044 67.67213431 119.5601976 51.81323242 90.96020508 C49.6997039 87.0359931 48.6495842 84.25135384 49.375 79.8125 C50.59748921 77.22320998 52.12511811 74.91508973 53.75 72.5625 C54.1625 71.93859375 54.575 71.3146875 55 70.671875 C56.65477526 68.19505009 58.26443251 65.92306749 60.375 63.8125 C63.1875 63.375 63.1875 63.375 66.375 63.8125 C70.43013938 67.28833375 73.08693758 71.23475095 75.625 75.875 C76.0063208 76.5661792 76.3876416 77.2573584 76.78051758 77.96948242 C86.2675852 95.49617441 93.18546593 113.64138037 97.625 133.0625 C97.77622314 133.7220166 97.92744629 134.3815332 98.08325195 135.06103516 C100.92512392 148.3188252 101.75084381 161.37079375 101.6875 174.875 C101.68476578 176.08914581 101.68476578 176.08914581 101.68197632 177.32781982 C101.48331131 229.88021582 81.22909928 273.81328366 45.375 311.8125 C44.57320313 312.6684375 43.77140625 313.524375 42.9453125 314.40625 C6.8854838 351.76659712 -45.20822512 371.8699479 -96.5625 373.0625 C-152.14405915 371.78292454 -203.50896678 350.07178402 -242.22607422 310.16210938 C-266.14806658 284.7416305 -282.22636844 251.7444023 -289.625 217.8125 C-289.78871094 217.09497559 -289.95242188 216.37745117 -290.12109375 215.63818359 C-295.21739607 192.37314231 -295.16291691 163.97920364 -289.625 140.8125 C-289.42632324 139.97976562 -289.22764648 139.14703125 -289.02294922 138.2890625 C-279.83373953 101.17429197 -260.96830949 69.24500402 -234.625 41.8125 C-234.13773438 41.29800293 -233.65046875 40.78350586 -233.1484375 40.25341797 C-198.20669215 3.45480848 -148.78907658 -16.58108519 -98.453125 -19.109375 C-64.29600903 -19.806459 -31.1779128 -14.41930955 0 0 Z " fill="#000000" transform="translate(345.625,73.1875)"/>
<path d="M0 0 C4.11200723 2.0933855 6.25646247 3.77016232 8 8 C9.61894906 15.86124304 6.00826439 21.49491863 2 28 C-0.39966701 31.45366802 -2.95827722 34.76136807 -5.5625 38.0625 C-6.9887844 39.90224772 -8.41323625 41.74341748 -9.8359375 43.5859375 C-10.53944336 44.49569336 -11.24294922 45.40544922 -11.96777344 46.34277344 C-16.59123904 52.38816023 -20.98902544 58.59878006 -25.41455078 64.78955078 C-27.03741293 67.05216148 -28.67123974 69.30645149 -30.30859375 71.55859375 C-37.36419793 81.26730409 -44.27232165 91.06115294 -51 101 C-51.41314453 101.60875977 -51.82628906 102.21751953 -52.25195312 102.84472656 C-74.64587891 135.90327152 -94.92750356 170.37715744 -112.59692383 206.1809082 C-116.13457039 213.33905087 -119.7933438 220.4027953 -123.6875 227.375 C-132.32384298 242.87171905 -140.02399302 258.87748268 -147.90039062 274.76904297 C-148.42475708 275.82112946 -148.42475708 275.82112946 -148.9597168 276.89447021 C-149.66972692 278.33152838 -150.36866104 279.77409885 -151.05786133 281.22125244 C-151.39906006 281.92957214 -151.74025879 282.63789185 -152.09179688 283.36767578 C-152.5398468 284.31285568 -152.5398468 284.31285568 -152.99694824 285.27713013 C-155.30702499 289.24498283 -158.73590717 291.42291414 -162.875 293.3125 C-169.85236477 294.84752025 -174.68687226 294.39038342 -181 291 C-187.26706685 286.78742614 -189.74232169 281.36836317 -193 274.6875 C-199.48846007 261.80387799 -206.5691141 249.36026268 -214 237 C-214.44939941 236.24928223 -214.89879883 235.49856445 -215.36181641 234.72509766 C-224.40909983 219.68394484 -234.65723282 205.45139218 -245.125 191.375 C-271.19373915 156.26817507 -271.19373915 156.26817507 -271 146 C-269.78369192 140.51074875 -267.62974337 136.34917606 -263 133 C-257.25509541 130.8066739 -252.25667816 130.46241586 -246.5390625 132.765625 C-236.33719065 137.72530424 -227.50957302 143.4454582 -219 151 C-218.01128906 151.86753906 -217.02257812 152.73507813 -216.00390625 153.62890625 C-197.02199852 170.50742975 -182.39800662 190.9545379 -170 213 C-169.5153125 212.01902344 -169.030625 211.03804687 -168.53125 210.02734375 C-166.37383225 205.67493587 -164.19262978 201.33476499 -162 197 C-161.69030273 196.38640625 -161.38060547 195.7728125 -161.06152344 195.140625 C-149.83225939 173.05516216 -135.9226746 152.45072042 -122 132 C-121.37061523 131.07525879 -120.74123047 130.15051758 -120.09277344 129.19775391 C-111.16105379 116.13188221 -101.70119009 103.50260327 -92 91 C-91.46181641 90.30583984 -90.92363281 89.61167969 -90.36914062 88.89648438 C-81.33424083 77.26682681 -71.9897884 65.90604372 -62.44140625 54.69580078 C-60.99800384 52.99765154 -59.56118577 51.29409807 -58.125 49.58984375 C-52.22110376 42.61152521 -46.13581666 35.8452974 -39.86669922 29.19287109 C-36.94936907 26.09641378 -34.07430437 22.98752187 -31.3125 19.75 C-12.08827643 -2.43553074 -12.08827643 -2.43553074 0 0 Z " fill="#000000" transform="translate(409,75)"/>
</svg>
