<svg xmlns="http://www.w3.org/2000/svg" width="886" height="1890" viewBox="0 0 886 1890" version="1.1"><path d="M 424.817 7.516 C 424.534 7.800, 414.671 8.460, 402.901 8.983 C 382.287 9.899, 377.240 10.310, 346.500 13.569 C 325.530 15.792, 293.299 20.571, 283.141 22.964 C 280.589 23.566, 275.125 24.760, 271 25.619 C 257.964 28.334, 247.756 30.722, 239.500 32.989 C 235.100 34.197, 230.150 35.542, 228.500 35.977 C 218.207 38.693, 207.209 42.260, 180.500 51.545 C 177.750 52.501, 175.050 53.611, 174.500 54.011 C 173.950 54.412, 171.769 55.297, 169.653 55.979 C 167.538 56.661, 164.613 57.842, 163.153 58.603 C 161.694 59.365, 160.163 59.990, 159.751 59.994 C 158.151 60.007, 130.964 73.421, 121 79.113 C 51.864 118.609, 20.136 165.703, 7.220 248 C 5.311 260.159, 4.131 1468.455, 5.885 1614.500 C 6.880 1697.317, 6.422 1691.319, 14.019 1721.075 C 26.918 1771.594, 63.130 1811.793, 117 1835.393 C 120.575 1836.959, 124.850 1838.850, 126.500 1839.594 C 134.593 1843.243, 158.086 1851.241, 173 1855.425 C 178.225 1856.891, 184.750 1858.744, 187.500 1859.544 C 190.250 1860.343, 194.525 1861.440, 197 1861.982 C 199.475 1862.524, 205.550 1863.894, 210.500 1865.028 C 257.558 1875.807, 303.223 1881.794, 378.512 1887.057 C 398.401 1888.447, 519.741 1887.752, 535 1886.161 C 540.775 1885.558, 551.575 1884.585, 559 1883.999 C 594.508 1881.192, 648.462 1873.169, 677.461 1866.383 C 706.500 1859.587, 744.993 1848.015, 753.746 1843.449 C 755.261 1842.659, 756.862 1842.010, 757.305 1842.006 C 757.748 1842.003, 760.223 1841.060, 762.805 1839.911 C 827.456 1811.143, 858.798 1775.571, 875.067 1712.500 C 879.987 1693.428, 883.896 367.724, 879.340 263.500 C 876.121 189.870, 843.685 129.715, 784.405 87.435 C 776.320 81.669, 747.016 64, 745.537 64 C 745.318 64, 740.720 61.933, 735.319 59.408 C 720.813 52.623, 718.161 51.525, 702.500 45.816 C 692.084 42.019, 688.099 40.742, 671.500 35.883 C 644.257 27.908, 613.594 21.604, 579.640 16.998 C 571.467 15.889, 564.492 14.808, 564.140 14.594 C 563.788 14.381, 556.750 13.704, 548.500 13.089 C 540.250 12.475, 529.225 11.522, 524 10.971 C 504.920 8.960, 426.118 6.215, 424.817 7.516" stroke="none" fill="#fcfcfc" fill-rule="evenodd"/></svg>