<svg xmlns="http://www.w3.org/2000/svg" width="408" height="612" viewBox="0 0 408 612" version="1.1"><path d="M 221.405 105.405 C 195.299 118.637, 187.095 133.349, 192.435 157.354 C 194.628 167.208, 195.523 166.990, 196.978 156.250 C 199.505 137.585, 202.092 130.619, 209.208 123.318 C 214.053 118.346, 222 112.469, 222 113.857 C 222 116.254, 210.419 143.373, 205.397 152.735 C 198.305 165.957, 198.868 167.238, 207.928 158.500 C 221.262 145.639, 226.426 136.077, 232.032 113.874 C 236.248 97.174, 236.791 97.606, 221.405 105.405 M 261.500 115.405 C 248.994 118.495, 229 133.152, 229 139.232 C 229 140.513, 229.459 140.256, 240.715 132.649 C 253.827 123.787, 258.139 122.496, 272.066 123.264 C 285.203 123.988, 286.154 124.625, 280.749 129.084 C 269.695 138.204, 264.746 140.115, 244.683 143.011 C 226.282 145.667, 226.101 146.027, 242.182 147.983 C 256.502 149.725, 268.133 147.126, 278.798 139.800 C 285.301 135.334, 301.231 119.828, 300.279 118.892 C 296.838 115.509, 270.624 113.151, 261.500 115.405 M 173.980 143.339 C 152.121 162.220, 147.730 176.945, 156.917 200.558 C 162.671 215.347, 163.194 214.872, 161.834 196.093 C 160.347 175.565, 163.368 163.686, 172.192 155.360 C 175.223 152.500, 175.223 152.500, 174.619 155.500 C 174.287 157.150, 173.330 164.575, 172.493 172 C 171.655 179.425, 169.802 191.263, 168.375 198.307 C 165.145 214.251, 165.453 214.532, 172.511 202.067 C 181.733 185.780, 189.894 136, 183.341 136 C 182.866 136, 178.654 139.303, 173.980 143.339 M 232.500 155.042 C 214.370 157.424, 199.859 168.710, 189.117 188.782 C 187.035 192.672, 189.246 191.173, 200 181.406 C 214.770 167.990, 224.158 164.030, 241.250 164.008 C 252.674 163.993, 240.715 173.062, 215.664 183.411 C 201.644 189.203, 188.968 196.002, 192.191 196 C 212.050 195.989, 243.257 181.518, 259.961 164.575 C 267.869 156.552, 267.711 156.337, 252.974 155.033 C 240.396 153.919, 241.046 153.919, 232.500 155.042 M 139.536 192.502 C 120.893 218.627, 120.687 236.227, 138.765 258.324 C 145.667 266.761, 146.104 266.040, 141.436 253.912 C 134.097 234.846, 133.140 226.017, 137.099 213.915 C 140.317 204.078, 140.411 204.073, 143.435 213.567 C 147.051 224.919, 147.857 231.291, 147.236 243.615 C 146.777 252.734, 147.472 261.862, 148.544 260.789 C 148.772 260.561, 150.361 255.003, 152.075 248.437 C 157.543 227.494, 157.181 217.516, 150.283 199 C 144.906 184.567, 145.110 184.690, 139.536 192.502 M 213.221 198.116 C 186.021 203.753, 172.216 214.722, 164.489 236.837 C 159.804 250.248, 160.787 249.978, 173.050 234.490 C 182.714 222.286, 186.590 218.729, 194.661 214.659 C 200.300 211.815, 214 207.695, 214 208.843 C 214 210.424, 200.805 222.231, 189.500 230.764 C 163.567 250.339, 160.185 255.365, 179.168 246.123 C 205.534 233.285, 217.650 222.595, 227.070 203.860 C 231.654 194.744, 230.934 194.446, 213.221 198.116 M 115.794 248.254 C 98.433 274.402, 96.447 298.114, 109.938 318.175 C 114.170 324.469, 127 338.527, 127 336.870 C 127 336.558, 124.064 330.154, 120.476 322.638 C 110.075 300.853, 108.794 290.895, 113.998 272.282 C 116.749 262.443, 116.405 262.320, 122.884 275.454 C 130.827 291.555, 132.280 298.153, 132.400 318.654 C 132.505 336.598, 132.871 338.034, 135.359 330.238 C 143.172 305.752, 141.065 282.612, 128.873 259 C 119.828 241.484, 120.127 241.729, 115.794 248.254 M 202.753 245.514 C 169.620 252.735, 155.300 263.296, 148.046 285.858 C 144.651 296.414, 145.736 296.163, 155.263 284.185 C 166.652 269.866, 177.046 262.853, 194.750 257.540 C 205.180 254.411, 183.079 277.255, 166.402 286.842 C 146.901 298.052, 146.253 299.830, 164.005 293.418 C 190.999 283.669, 215 260.137, 215 243.421 C 215 242.848, 214.936 242.859, 202.753 245.514 M 188 289.097 C 151.875 300.384, 140.945 313.160, 142.236 342.590 C 142.950 358.876, 143.981 359.467, 147.856 345.810 C 153.438 326.134, 155.728 321.218, 162.470 314.422 C 170.568 306.260, 191.574 295.457, 189.662 300.437 C 189.359 301.228, 188.636 303.591, 188.055 305.687 C 186.075 312.837, 179.513 322.956, 168 336.609 C 155.805 351.073, 150 358.650, 150 360.108 C 150 361.615, 179.203 336.695, 185.191 330.079 C 194.065 320.272, 200.827 305.170, 203.470 289.250 C 204.353 283.934, 204.518 283.936, 188 289.097 M 106.546 329.250 C 95.970 363.078, 104.873 391.144, 132.025 409.573 C 150.321 421.992, 150.792 421.548, 136.474 405.384 C 120.605 387.469, 114.344 372.631, 115.200 354.970 C 115.733 343.992, 131.416 366.863, 142.393 394.625 C 153.177 421.900, 155.482 425.533, 152.598 410.708 C 151.826 406.744, 150.200 398.100, 148.984 391.500 C 144.726 368.397, 139.018 357.888, 120.875 339.750 C 109.338 328.216, 107.330 326.745, 106.546 329.250 M 185.776 339.898 C 155.892 356.660, 150.042 369.216, 156.488 402.756 C 159.749 419.725, 160.414 420.213, 161.926 406.750 C 164.612 382.843, 165.177 379.196, 167.111 373.278 C 169.354 366.415, 175.666 358.498, 182.168 354.394 C 187.114 351.272, 187 351.212, 187 356.928 C 187 374.421, 179.737 395.496, 166.645 415.987 C 161.602 423.881, 163.185 423.587, 171.099 415.160 C 192.837 392.015, 201.234 367.871, 197.364 339.640 C 196.578 333.902, 196.461 333.904, 185.776 339.898 M 189.223 404.750 C 167.114 426.928, 167.957 447.949, 192.055 475.325 C 197.649 481.680, 197.774 480.984, 193.137 469.344 C 182.330 442.217, 182.457 433.400, 193.898 416.551 C 195.901 413.603, 195.901 413.603, 197.898 418.263 C 205.342 435.628, 205.965 448.764, 200.445 472 C 199.439 476.236, 202.696 471.657, 206.618 463.319 C 215.760 443.888, 215.129 426.401, 204.464 403.627 C 199.991 394.075, 199.855 394.085, 189.223 404.750 M 110.020 409.750 C 110.811 439.354, 138.040 472.780, 168.837 481.951 C 183.542 486.331, 189.178 486.410, 180.250 482.112 C 158.540 471.660, 138.984 453.504, 130.002 435.463 C 124.910 425.235, 124.908 425.240, 131.750 429.084 C 146.651 437.457, 154.836 444.807, 166.734 460.500 C 185.878 485.749, 186.806 483.652, 170.811 451.290 C 162.208 433.885, 146.768 422.187, 119.059 412.079 C 109.592 408.626, 109.993 408.729, 110.020 409.750" stroke="none" fill="#000101" fill-rule="evenodd"/></svg>