<?xml version="1.0" encoding="UTF-8"?>
<svg xmlns="http://www.w3.org/2000/svg" xmlns:xlink="http://www.w3.org/1999/xlink" width="886px" height="1865px" viewBox="0 0 886 1865" version="1.1">
<g id="surface1">
<path style=" stroke:none;fill-rule:evenodd;fill:rgb(100%,100%,100%);fill-opacity:1;" d="M 428.160156 89.15625 C 427.996094 89.351562 420.65625 89.871094 411.851562 90.300781 C 315.433594 95.015625 225.542969 124.4375 171.601562 168.933594 C 130.644531 202.71875 108.695312 251.007812 103.871094 317.945312 C 102.320312 339.425781 102.664062 1580.457031 104.222656 1596.660156 C 110.785156 1664.890625 137.121094 1707.566406 189.484375 1734.828125 C 301.25 1793.015625 539.257812 1799.734375 669.8125 1748.386719 C 737.324219 1721.839844 769.40625 1682.429688 780.59375 1612.304688 C 783.449219 1594.398438 783.835938 323.609375 780.992188 301.121094 C 765.953125 182.226562 686.332031 116.09375 532.550781 94.769531 C 505.964844 91.082031 429.980469 87 428.160156 89.15625 "/>
</g>
</svg>
