<?xml version="1.0" encoding="UTF-8"?>
<svg xmlns="http://www.w3.org/2000/svg" xmlns:xlink="http://www.w3.org/1999/xlink" width="886px" height="1875px" viewBox="0 0 886 1875" version="1.1">
<g id="surface1">
<path style=" stroke:none;fill-rule:evenodd;fill:rgb(100%,100%,100%);fill-opacity:1;" d="M 428.160156 89.632812 C 427.996094 89.832031 420.65625 90.351562 411.851562 90.785156 C 315.433594 95.523438 225.542969 125.105469 171.601562 169.839844 C 130.644531 203.804688 108.695312 252.355469 103.871094 319.648438 C 102.320312 341.246094 102.664062 1588.929688 104.222656 1605.222656 C 110.785156 1673.816406 137.121094 1716.722656 189.484375 1744.128906 C 301.25 1802.628906 539.257812 1809.382812 669.8125 1757.761719 C 737.324219 1731.070312 769.40625 1691.449219 780.59375 1620.949219 C 783.449219 1602.949219 783.835938 325.34375 780.992188 302.734375 C 765.953125 183.203125 686.332031 116.714844 532.550781 95.277344 C 505.964844 91.570312 429.980469 87.464844 428.160156 89.632812 "/>
</g>
</svg>
