<?xml version="1.0" encoding="UTF-8"?>
<svg xmlns="http://www.w3.org/2000/svg" xmlns:xlink="http://www.w3.org/1999/xlink" width="886px" height="1885px" viewBox="0 0 886 1885" version="1.1">
<g id="surface1">
<path style=" stroke:none;fill-rule:evenodd;fill:rgb(100%,100%,100%);fill-opacity:1;" d="M 428.160156 90.113281 C 427.996094 90.3125 420.65625 90.832031 411.851562 91.269531 C 315.433594 96.035156 225.542969 125.773438 171.601562 170.746094 C 130.644531 204.890625 108.695312 253.703125 103.871094 321.355469 C 102.320312 343.066406 102.664062 1597.402344 104.222656 1613.785156 C 110.785156 1682.742188 137.121094 1725.878906 189.484375 1753.429688 C 301.25 1812.242188 539.257812 1819.035156 669.8125 1767.136719 C 737.324219 1740.300781 769.40625 1700.46875 780.59375 1629.59375 C 783.449219 1611.5 783.835938 327.078125 780.992188 304.347656 C 765.953125 184.179688 686.332031 117.335938 532.550781 95.785156 C 505.964844 92.058594 429.980469 87.929688 428.160156 90.113281 "/>
</g>
</svg>
