<?xml version="1.0" encoding="UTF-8"?>
<svg xmlns="http://www.w3.org/2000/svg" xmlns:xlink="http://www.w3.org/1999/xlink" width="886px" height="1890px" viewBox="0 0 886 1890" version="1.1">
<g id="surface1">
<path style=" stroke:none;fill-rule:evenodd;fill:rgb(100%,100%,100%);fill-opacity:1;" d="M 428.160156 90.351562 C 427.996094 90.550781 420.65625 91.074219 411.851562 91.511719 C 315.433594 96.289062 225.542969 126.105469 171.601562 171.199219 C 130.644531 205.433594 108.695312 254.375 103.871094 322.207031 C 102.320312 343.976562 102.664062 1601.640625 104.222656 1618.066406 C 110.785156 1687.207031 137.121094 1730.457031 189.484375 1758.082031 C 301.25 1817.050781 539.257812 1823.859375 669.8125 1771.824219 C 737.324219 1744.917969 769.40625 1704.980469 780.59375 1633.917969 C 783.449219 1615.773438 783.835938 327.945312 780.992188 305.15625 C 765.953125 184.667969 686.332031 117.648438 532.550781 96.039062 C 505.964844 92.304688 429.980469 88.164062 428.160156 90.351562 "/>
</g>
</svg>
