<svg xmlns="http://www.w3.org/2000/svg" width="1024" height="1536" viewBox="0 0 1024 1536" version="1.1"><path d="M 494.851 73.428 C 494.658 73.592, 486.175 74.016, 476 74.370 C 364.564 78.255, 260.674 102.486, 198.329 139.133 C 150.995 166.956, 125.624 206.730, 120.048 261.856 C 118.258 279.549, 118.654 1301.650, 120.456 1315 C 128.040 1371.191, 158.478 1406.339, 219 1428.792 C 348.171 1476.715, 623.252 1482.248, 774.141 1439.959 C 852.168 1418.091, 889.245 1385.635, 902.176 1327.881 C 905.477 1313.135, 905.924 266.520, 902.636 248 C 885.255 150.079, 793.231 95.613, 615.500 78.052 C 584.772 75.016, 496.951 71.650, 494.851 73.428" stroke="none" fill="#ffffff" fill-rule="evenodd"/></svg>