<?xml version="1.0" encoding="UTF-8"?>
<svg version="1.1" xmlns="http://www.w3.org/2000/svg" width="886" height="1890">
<path d="M0 0 C3.61425971 0.00569127 7.22844568 0.00230862 10.84270287 -0.00343704 C24.18341928 -0.0214587 37.51515669 0.02065582 50.84692383 0.57568359 C51.80009995 0.61442596 52.75327606 0.65316833 53.7353363 0.69308472 C60.14743102 1.00132782 60.14743102 1.00132782 62.40551758 2.13037109 C65.03800935 2.32207742 67.65203697 2.46013119 70.28833008 2.56005859 C71.93654422 2.63193066 73.58473684 2.70429746 75.23291016 2.77709961 C76.09848541 2.81408966 76.96406067 2.85107971 77.85586548 2.88919067 C93.01439414 3.54764051 107.94153454 4.58650474 122.96264648 6.80273438 C126.45789571 7.27151555 129.96446317 7.57369566 133.47851562 7.86450195 C135.40551758 8.13037109 135.40551758 8.13037109 136.40551758 9.13037109 C138.25398201 9.42886109 140.11189655 9.66929932 141.97192383 9.88427734 C143.09663086 10.01640625 144.22133789 10.14853516 145.38012695 10.28466797 C146.56413086 10.419375 147.74813477 10.55408203 148.96801758 10.69287109 C150.15588867 10.83144531 151.34375977 10.97001953 152.56762695 11.11279297 C155.51316479 11.45584758 158.45911291 11.79485656 161.40551758 12.13037109 C161.40551758 12.79037109 161.40551758 13.45037109 161.40551758 14.13037109 C162.32333008 14.19095703 163.24114258 14.25154297 164.18676758 14.31396484 C170.62402558 14.75348351 177.01487463 15.23568108 183.40551758 16.13037109 C183.40551758 16.79037109 183.40551758 17.45037109 183.40551758 18.13037109 C184.2021582 18.19095703 184.99879883 18.25154297 185.81958008 18.31396484 C196.34400615 19.14618832 196.34400615 19.14618832 201.40551758 20.13037109 C201.40551758 20.79037109 201.40551758 21.45037109 201.40551758 22.13037109 C202.50959961 22.22125 202.50959961 22.22125 203.63598633 22.31396484 C204.61180664 22.39775391 205.58762695 22.48154297 206.59301758 22.56787109 C207.55594727 22.64908203 208.51887695 22.73029297 209.51098633 22.81396484 C212.19201359 23.1070326 214.77181618 23.55740863 217.40551758 24.13037109 C217.40551758 24.79037109 217.40551758 25.45037109 217.40551758 26.13037109 C218.06938477 26.19095703 218.73325195 26.25154297 219.41723633 26.31396484 C228.18759139 27.14618832 228.18759139 27.14618832 232.40551758 28.13037109 C232.40551758 28.79037109 232.40551758 29.45037109 232.40551758 30.13037109 C232.96239258 30.16775391 233.51926758 30.20513672 234.09301758 30.24365234 C238.69977419 30.6405182 242.59503464 31.40438617 246.90551758 33.17724609 C251.0328657 34.75079756 255.27726943 35.97469405 259.50732422 37.24072266 C266.37021952 39.33275141 272.77639647 42.27723922 279.29223633 45.26318359 C281.31701862 46.09405544 283.27162229 46.65831299 285.40551758 47.13037109 C285.40551758 47.79037109 285.40551758 48.45037109 285.40551758 49.13037109 C286.23051758 49.21287109 287.05551758 49.29537109 287.90551758 49.38037109 C291.56683064 50.16493818 294.30154057 51.43750769 297.57348633 53.19287109 C299.5493069 54.2620002 299.5493069 54.2620002 302.40551758 55.13037109 C302.40551758 55.79037109 302.40551758 56.45037109 302.40551758 57.13037109 C305.04551758 57.79037109 307.68551758 58.45037109 310.40551758 59.13037109 C310.40551758 59.79037109 310.40551758 60.45037109 310.40551758 61.13037109 C312.71551758 61.79037109 315.02551758 62.45037109 317.40551758 63.13037109 C317.40551758 63.79037109 317.40551758 64.45037109 317.40551758 65.13037109 C318.14801758 65.23349609 318.89051758 65.33662109 319.65551758 65.44287109 C322.60914984 66.18127916 324.05841657 67.25269029 326.40551758 69.13037109 C327.39551758 69.46037109 328.38551758 69.79037109 329.40551758 70.13037109 C329.40551758 70.79037109 329.40551758 71.45037109 329.40551758 72.13037109 C330.27176758 72.37787109 331.13801758 72.62537109 332.03051758 72.88037109 C335.61611822 74.20837133 338.36879745 75.81667957 341.40551758 78.13037109 C341.40551758 78.79037109 341.40551758 79.45037109 341.40551758 80.13037109 C342.06938477 80.33662109 342.73325195 80.54287109 343.41723633 80.75537109 C347.51192966 82.63946528 350.73227836 85.3017521 354.21801758 88.13037109 C354.91088867 88.67693359 355.60375977 89.22349609 356.31762695 89.78662109 C356.97182617 90.31255859 357.62602539 90.83849609 358.30004883 91.38037109 C359.19494019 92.09966797 359.19494019 92.09966797 360.10791016 92.83349609 C360.53612061 93.26146484 360.96433105 93.68943359 361.40551758 94.13037109 C361.40551758 94.79037109 361.40551758 95.45037109 361.40551758 96.13037109 C362.0062207 96.22833984 362.60692383 96.32630859 363.22583008 96.42724609 C365.84989522 97.27371872 366.61602545 98.21747172 368.28051758 100.38037109 C370.22640169 102.78468404 371.93052927 104.5660191 374.34301758 106.56787109 C378.16023536 109.76186964 381.20932943 113.32898756 384.40551758 117.13037109 C385.58694336 118.49742188 385.58694336 118.49742188 386.79223633 119.89208984 C407.67027221 144.35104459 422.18889694 174.40031781 430.14379883 205.42724609 C430.80155143 207.97981796 431.47790349 210.30763732 432.47583008 212.75146484 C433.82976233 216.21593855 434.37022427 219.78968974 434.96801758 223.44287109 C435.09370117 224.14476562 435.21938477 224.84666016 435.34887695 225.56982422 C437.97761197 241.3284713 437.60200018 257.51833408 437.7173748 273.44057083 C437.73776705 275.84290312 437.75845421 278.24523291 437.77941258 280.64756033 C437.83441265 287.12090072 437.88322709 293.59427604 437.93019412 300.06767884 C437.95996162 304.16060108 437.99162221 308.25350757 438.02348052 312.346414 C438.43580478 365.58854949 438.55178877 418.82943902 438.53718616 472.07313224 C438.53403084 484.32072255 438.53636468 496.56831051 438.53896035 508.8159007 C438.5441564 533.35280031 438.54465054 557.88969768 438.5418129 582.4265976 C438.53908134 606.06116516 438.5380755 629.69573167 438.53933334 653.33029938 C438.53941083 654.83670697 438.53948798 656.34311457 438.53956481 657.84952216 C438.53987551 663.90910807 438.54019419 669.96869397 438.54052458 676.02827988 C438.54144019 692.95516942 438.54201183 709.88205896 438.54231071 726.80894852 C438.54232436 727.57889256 438.54233801 728.34883661 438.54235207 729.14211229 C438.54275946 753.56195943 438.54164461 777.98180625 438.53946114 802.40165329 C438.53935576 803.5840469 438.53935576 803.5840469 438.53924826 804.79032725 C438.53810441 817.57717001 438.53688443 830.36401276 438.53565809 843.15085552 C438.53081737 893.67885899 438.53101842 944.20685982 438.53588867 994.73486328 C438.53711083 1007.45458348 438.53832229 1020.17430369 438.53946114 1032.8940239 C438.53956681 1034.07036165 438.53956681 1034.07036165 438.53967462 1035.27046381 C438.54184715 1059.62649277 438.54274198 1083.98252151 438.54231071 1108.33855057 C438.54229034 1109.49358559 438.54229034 1109.49358559 438.54226955 1110.67195466 C438.54195636 1127.61448094 438.54132136 1144.55700721 438.54040021 1161.49953347 C438.54007136 1167.56892374 438.53975823 1173.63831402 438.5394495 1179.70770429 C438.53937211 1181.21639226 438.53929338 1182.72508023 438.5392133 1184.2337682 C438.53808057 1205.63118757 438.53883957 1227.02860596 438.54132021 1248.42602522 C438.56461863 1450.89139191 438.56461863 1450.89139191 437.97528512 1568.20956255 C437.95989582 1570.93171268 437.94487622 1573.65386458 437.92999163 1576.37601751 C437.81157756 1598.00077893 437.65975735 1619.62480063 437.44254369 1641.24880326 C437.40642169 1645.03558966 437.37613793 1648.82237918 437.34753656 1652.60922909 C437.3035277 1658.25309611 437.2402564 1663.89639615 437.16009642 1669.53986296 C437.13471133 1671.50667836 437.11529142 1673.4735836 437.1030129 1675.44052449 C436.99800079 1690.99686956 435.1215228 1705.58267394 429.40551758 1720.13037109 C428.92602363 1721.55782501 428.45760694 1722.98916781 428.01098633 1724.42724609 C425.14932682 1733.44077266 421.9051506 1741.77946715 417.40551758 1750.13037109 C416.79797815 1751.42045481 416.19351405 1752.71199407 415.59301758 1754.00537109 C410.80460983 1763.5422832 404.69888817 1772.36428203 397.40551758 1780.13037109 C396.19200555 1781.50080278 394.98369932 1782.87586099 393.78051758 1784.25537109 C393.20301758 1784.91021484 392.62551758 1785.56505859 392.03051758 1786.23974609 C390.55481874 1787.95666493 389.16877903 1789.71798447 387.78051758 1791.50537109 C385.33047314 1794.21331495 383.75487766 1794.92087995 380.40551758 1796.13037109 C380.07551758 1797.12037109 379.74551758 1798.11037109 379.40551758 1799.13037109 C376.99878587 1802.29712335 374.14469794 1803.05016343 370.40551758 1804.13037109 C370.40551758 1804.79037109 370.40551758 1805.45037109 370.40551758 1806.13037109 C367.29086244 1808.88906564 363.99795626 1811.05053817 360.40551758 1813.13037109 C359.41551758 1813.79037109 358.42551758 1814.45037109 357.40551758 1815.13037109 C356.41551758 1815.13037109 355.42551758 1815.13037109 354.40551758 1815.13037109 C354.40551758 1815.79037109 354.40551758 1816.45037109 354.40551758 1817.13037109 C352.44966433 1818.13521313 350.49075521 1819.13410914 348.53051758 1820.13037109 C347.4399707 1820.68724609 346.34942383 1821.24412109 345.22583008 1821.81787109 C342.40551758 1823.13037109 342.40551758 1823.13037109 340.40551758 1823.13037109 C340.40551758 1823.79037109 340.40551758 1824.45037109 340.40551758 1825.13037109 C337.49951497 1826.38702087 335.60947173 1827.13037109 332.40551758 1827.13037109 C332.40551758 1827.79037109 332.40551758 1828.45037109 332.40551758 1829.13037109 C331.31754883 1829.57767578 330.22958008 1830.02498047 329.10864258 1830.48583984 C327.62426329 1831.0965065 326.13988862 1831.70718438 324.65551758 1832.31787109 C323.87998535 1832.63667236 323.10445312 1832.95547363 322.30541992 1833.28393555 C317.87167043 1835.10832947 313.44750902 1836.95317814 309.03051758 1838.81787109 C300.46320566 1842.36902774 292.73139792 1845.51883796 283.40551758 1846.13037109 C283.40551758 1846.79037109 283.40551758 1847.45037109 283.40551758 1848.13037109 C274.97694615 1850.41608538 274.97694615 1850.41608538 270.40551758 1850.13037109 C270.40551758 1850.79037109 270.40551758 1851.45037109 270.40551758 1852.13037109 C268.84434939 1852.46988728 267.28150419 1852.80169654 265.71801758 1853.13037109 C264.84790039 1853.31599609 263.9777832 1853.50162109 263.08129883 1853.69287109 C260.46838794 1854.12009156 258.04738719 1854.2065331 255.40551758 1854.13037109 C255.40551758 1854.79037109 255.40551758 1855.45037109 255.40551758 1856.13037109 C253.6774444 1856.46932765 251.94799784 1856.80128634 250.21801758 1857.13037109 C249.25508789 1857.31599609 248.2921582 1857.50162109 247.30004883 1857.69287109 C244.61209698 1858.09914722 242.11780739 1858.20970681 239.40551758 1858.13037109 C239.40551758 1858.79037109 239.40551758 1859.45037109 239.40551758 1860.13037109 C237.36480242 1860.46948103 235.32289136 1860.80139813 233.28051758 1861.13037109 C232.14356445 1861.31599609 231.00661133 1861.50162109 229.83520508 1861.69287109 C226.64414156 1862.09993159 223.61733966 1862.20847011 220.40551758 1862.13037109 C220.40551758 1862.79037109 220.40551758 1863.45037109 220.40551758 1864.13037109 C218.21899019 1864.47002583 216.03123733 1864.80179587 213.84301758 1865.13037109 C212.62485352 1865.31599609 211.40668945 1865.50162109 210.15161133 1865.69287109 C206.5292391 1866.11592187 203.04839712 1866.20538534 199.40551758 1866.13037109 C199.40551758 1866.79037109 199.40551758 1867.45037109 199.40551758 1868.13037109 C198.28274414 1868.25154297 197.1599707 1868.37271484 196.00317383 1868.49755859 C194.49142648 1868.66657383 192.97970932 1868.83585922 191.46801758 1869.00537109 C190.36490234 1869.12332031 190.36490234 1869.12332031 189.23950195 1869.24365234 C185.42359814 1869.67689907 181.72918879 1870.24544369 177.99145508 1871.13427734 C173.01850198 1872.29382182 168.04853379 1872.75976556 162.96801758 1873.19287109 C161.19816975 1873.34682622 159.42861552 1873.50420693 157.65942383 1873.66552734 C156.88928955 1873.7313501 156.11915527 1873.79717285 155.32568359 1873.86499023 C153.325311 1874.03691176 153.325311 1874.03691176 151.40551758 1875.13037109 C148.65178521 1875.41511787 145.91177132 1875.65031902 143.15161133 1875.84912109 C142.33555923 1875.91192261 141.51950714 1875.97472412 140.6787262 1876.03942871 C137.17935426 1876.30869967 133.67928259 1876.56828928 130.17919922 1876.828125 C127.6280401 1877.01892339 125.07733439 1877.21509284 122.52661133 1877.41162109 C121.72871689 1877.46894409 120.93082245 1877.52626709 120.10874939 1877.58532715 C116.45045782 1877.55286316 116.45045782 1877.55286316 113.40551758 1879.13037109 C108.70780299 1879.70604541 103.96959051 1879.91012005 99.24536133 1880.17724609 C98.46187757 1880.22161552 97.67839382 1880.26598495 96.87116814 1880.31169891 C68.98542704 1881.81691871 41.00712788 1881.42997127 13.09024179 1881.38750887 C7.55395157 1881.37996831 2.01773291 1881.38268602 -3.51855469 1881.39111328 C-64.2275867 1881.48122264 -64.2275867 1881.48122264 -87.94213867 1880.17724609 C-88.72807341 1880.13414558 -89.51400814 1880.09104507 -90.32375908 1880.04663849 C-102.36686331 1879.35799021 -102.36686331 1879.35799021 -103.59448242 1878.13037109 C-106.38912266 1877.83964327 -109.16771643 1877.60679013 -111.96948242 1877.41162109 C-112.80914551 1877.34881958 -113.64880859 1877.28601807 -114.51391602 1877.22131348 C-117.20713781 1877.01998501 -119.9007322 1876.82449366 -122.59448242 1876.63037109 C-126.136554 1876.37511505 -129.6781184 1876.11399283 -133.21948242 1875.84912109 C-134.0423877 1875.7917981 -134.86529297 1875.7344751 -135.71313477 1875.67541504 C-141.48168061 1875.2431729 -141.48168061 1875.2431729 -142.59448242 1874.13037109 C-144.46043607 1873.85468031 -146.33519873 1873.63820432 -148.21166992 1873.44677734 C-149.95963867 1873.26211914 -149.95963867 1873.26211914 -151.74291992 1873.07373047 C-152.97268555 1872.94804688 -154.20245117 1872.82236328 -155.46948242 1872.69287109 C-163.1170963 1871.91072876 -170.67531379 1871.05334629 -178.22094727 1869.56176758 C-181.24639613 1869.011884 -184.26545643 1868.71533377 -187.32885742 1868.47412109 C-189.59448242 1868.13037109 -189.59448242 1868.13037109 -192.89135742 1867.16162109 C-196.64814622 1866.11542675 -200.22406932 1865.57818749 -204.09448242 1865.13037109 C-209.13855829 1864.54675901 -213.72433085 1863.5469428 -218.59448242 1862.13037109 C-220.9003767 1861.71668906 -223.21330022 1861.34002626 -225.53198242 1861.00537109 C-226.67538086 1860.83779297 -227.8187793 1860.67021484 -228.99682617 1860.49755859 C-229.85405273 1860.37638672 -230.7112793 1860.25521484 -231.59448242 1860.13037109 C-231.59448242 1859.47037109 -231.59448242 1858.81037109 -231.59448242 1858.13037109 C-232.68116211 1858.03949219 -232.68116211 1858.03949219 -233.78979492 1857.94677734 C-238.76564775 1857.51553677 -243.68128633 1857.05989468 -248.59448242 1856.13037109 C-248.59448242 1855.47037109 -248.59448242 1854.81037109 -248.59448242 1854.13037109 C-249.25834961 1854.06978516 -249.9222168 1854.00919922 -250.60620117 1853.94677734 C-259.37655624 1853.11455387 -259.37655624 1853.11455387 -263.59448242 1852.13037109 C-263.59448242 1851.47037109 -263.59448242 1850.81037109 -263.59448242 1850.13037109 C-264.81135742 1850.04787109 -266.02823242 1849.96537109 -267.28198242 1849.88037109 C-273.64888157 1849.16521238 -279.53614418 1847.14313027 -285.59448242 1845.13037109 C-286.8783207 1844.7071458 -288.16217523 1844.28396983 -289.44604492 1843.86083984 C-293.16636655 1842.62971779 -296.88061555 1841.38083132 -300.59448242 1840.13037109 C-302.40674224 1839.52548437 -304.21919804 1838.92118395 -306.03198242 1838.31787109 C-307.79541992 1837.73005859 -307.79541992 1837.73005859 -309.59448242 1837.13037109 C-309.59448242 1836.47037109 -309.59448242 1835.81037109 -309.59448242 1835.13037109 C-312.89448242 1834.47037109 -316.19448242 1833.81037109 -319.59448242 1833.13037109 C-319.59448242 1832.47037109 -319.59448242 1831.81037109 -319.59448242 1831.13037109 C-322.56448242 1830.47037109 -325.53448242 1829.81037109 -328.59448242 1829.13037109 C-328.59448242 1828.47037109 -328.59448242 1827.81037109 -328.59448242 1827.13037109 C-331.23448242 1826.47037109 -333.87448242 1825.81037109 -336.59448242 1825.13037109 C-336.59448242 1824.47037109 -336.59448242 1823.81037109 -336.59448242 1823.13037109 C-337.30991211 1823.01822266 -338.0253418 1822.90607422 -338.76245117 1822.79052734 C-341.7856424 1822.08581104 -344.1577093 1820.99749311 -346.90698242 1819.56787109 C-347.78999023 1819.11283203 -348.67299805 1818.65779297 -349.58276367 1818.18896484 C-350.24663086 1817.83962891 -350.91049805 1817.49029297 -351.59448242 1817.13037109 C-351.59448242 1816.47037109 -351.59448242 1815.81037109 -351.59448242 1815.13037109 C-353.57448242 1814.47037109 -355.55448242 1813.81037109 -357.59448242 1813.13037109 C-357.59448242 1812.47037109 -357.59448242 1811.81037109 -357.59448242 1811.13037109 C-359.57448242 1810.47037109 -361.55448242 1809.81037109 -363.59448242 1809.13037109 C-363.59448242 1808.47037109 -363.59448242 1807.81037109 -363.59448242 1807.13037109 C-364.49094482 1806.95489746 -364.49094482 1806.95489746 -365.40551758 1806.77587891 C-368.89301692 1805.7474439 -371.29251105 1803.24276749 -373.96948242 1800.88037109 C-375.08128995 1799.91663139 -376.1932683 1798.9530887 -377.30541992 1797.98974609 C-377.84980713 1797.5134375 -378.39419434 1797.03712891 -378.95507812 1796.54638672 C-380.56490973 1795.15591415 -382.20177262 1793.80506211 -383.84838867 1792.45849609 C-386.83572776 1789.92584446 -389.12796823 1787.16608086 -391.59448242 1784.13037109 C-392.77010742 1782.98568359 -392.77010742 1782.98568359 -393.96948242 1781.81787109 C-410.59448242 1764.79703776 -410.59448242 1764.79703776 -410.59448242 1757.13037109 C-411.25448242 1757.13037109 -411.91448242 1757.13037109 -412.59448242 1757.13037109 C-419.76520739 1742.49840416 -426.18163064 1728.20546008 -430.00708008 1712.32666016 C-430.57350782 1710.06805869 -430.57350782 1710.06805869 -431.50126213 1707.70252681 C-436.72008777 1690.64973519 -437.22269034 1672.43063354 -437.33164978 1654.74285889 C-437.35905559 1652.47626047 -437.38785204 1650.20967849 -437.41793627 1647.94311404 C-437.48940078 1642.13056371 -437.53675787 1636.31813937 -437.57327828 1630.50527275 C-437.59361121 1627.26903448 -437.61758929 1624.0328443 -437.64262891 1620.79663944 C-437.74437378 1607.12013026 -437.77869572 1593.44384111 -437.79509261 1579.76699764 C-437.80333941 1573.75275867 -437.81695616 1567.738531 -437.8297863 1561.72430038 C-437.85133635 1551.28236024 -437.86959598 1540.8404184 -437.88537407 1530.39846802 C-437.90213725 1519.30554797 -437.9207798 1508.21263353 -437.94166756 1497.11972046 C-437.94299126 1496.41554772 -437.94431497 1495.71137499 -437.94567878 1494.98586368 C-437.95106992 1492.11940851 -437.95646936 1489.25295336 -437.96188088 1486.38649823 C-438.01756291 1456.87027219 -438.06638725 1427.35403733 -438.11238509 1397.83779478 C-438.11359796 1397.0595219 -438.11481082 1396.28124903 -438.11606043 1395.47939212 C-438.11727473 1394.70019027 -438.11848903 1393.92098843 -438.11974012 1393.1181744 C-438.12095606 1392.33807803 -438.12217199 1391.55798166 -438.12342478 1390.75424601 C-438.12588523 1389.17561127 -438.12834467 1387.59697654 -438.13080309 1386.0183418 C-438.15681077 1369.33191885 -438.18440774 1352.64549867 -438.21217981 1335.95907858 C-438.34360485 1256.9615052 -438.46245316 1177.96391646 -438.26790626 454.08232221 C-438.2349786 438.89302633 -438.20550417 423.703728 -438.17877242 408.51442 C-438.14486419 389.26704 -438.10428502 370.01969311 -438.051893 350.77235389 C-438.02687714 341.53291793 -438.00466762 332.29349958 -437.99110413 323.054039 C-437.97982523 315.38226602 -437.96191072 307.71054492 -437.93530285 300.03880914 C-437.92212907 296.18851097 -437.91181382 292.33827175 -437.91027093 288.48794985 C-437.89862214 266.86100775 -437.41807269 245.28627144 -433.59448242 223.94287109 C-433.42948242 222.94835937 -433.26448242 221.95384766 -433.09448242 220.92919922 C-432.31028118 216.37409276 -431.32885417 212.41943108 -429.59448242 208.13037109 C-429.04797533 206.19708326 -428.53299927 204.25470545 -428.04370117 202.30615234 C-427.75688477 201.19433594 -427.47006836 200.08251953 -427.17456055 198.93701172 C-426.58490774 196.62872099 -426.00145317 194.31883702 -425.42456055 192.00732422 C-423.77881693 185.67613756 -421.81250295 180.03757599 -418.72998047 174.26391602 C-417.3267765 171.62736484 -416.23612219 168.9132077 -415.15698242 166.13037109 C-412.82445975 160.41642404 -409.8649226 155.34663183 -406.59448242 150.13037109 C-405.94202196 148.96739768 -405.29552986 147.8010414 -404.65698242 146.63037109 C-400.43296918 139.22976253 -395.17559667 132.48172325 -389.96948242 125.75537109 C-389.51436279 125.16038818 -389.05924316 124.56540527 -388.59033203 123.95239258 C-385.87606731 120.48665177 -383.10799329 117.82542685 -379.59448242 115.13037109 C-378.57975057 114.01591129 -377.59620724 112.8716663 -376.65698242 111.69287109 C-373.90342455 108.37866613 -370.95601125 105.81959416 -367.59448242 103.13037109 C-367.01698242 102.53224609 -366.43948242 101.93412109 -365.84448242 101.31787109 C-364.59448242 100.13037109 -364.59448242 100.13037109 -362.59448242 100.13037109 C-362.09948242 98.64537109 -362.09948242 98.64537109 -361.59448242 97.13037109 C-360.03588867 95.74365234 -360.03588867 95.74365234 -358.15698242 94.44287109 C-357.53952148 94.00587891 -356.92206055 93.56888672 -356.28588867 93.11865234 C-354.59448242 92.13037109 -354.59448242 92.13037109 -352.59448242 92.13037109 C-352.59448242 91.47037109 -352.59448242 90.81037109 -352.59448242 90.13037109 C-348.7776863 87.22233596 -345.19877176 85.44588233 -340.59448242 84.13037109 C-340.59448242 83.47037109 -340.59448242 82.81037109 -340.59448242 82.13037109 C-338.47729492 80.62255859 -338.47729492 80.62255859 -335.71948242 79.00537109 C-334.81456055 78.46654297 -333.90963867 77.92771484 -332.97729492 77.37255859 C-330.59448242 76.13037109 -330.59448242 76.13037109 -328.59448242 76.13037109 C-328.59448242 75.47037109 -328.59448242 74.81037109 -328.59448242 74.13037109 C-325.12948242 73.14037109 -325.12948242 73.14037109 -321.59448242 72.13037109 C-321.59448242 71.47037109 -321.59448242 70.81037109 -321.59448242 70.13037109 C-320.98975098 69.84315186 -320.38501953 69.55593262 -319.76196289 69.26000977 C-316.99750548 67.94658816 -314.23349075 66.63223749 -311.46948242 65.31787109 C-310.5181543 64.86605469 -309.56682617 64.41423828 -308.58666992 63.94873047 C-307.65854492 63.50722656 -306.73041992 63.06572266 -305.77416992 62.61083984 C-304.87408203 62.18335449 -303.97399414 61.75586914 -303.04663086 61.31542969 C-301.04701464 60.34906797 -299.07078524 59.33443532 -297.10229492 58.30615234 C-294.59448242 57.13037109 -294.59448242 57.13037109 -291.59448242 57.13037109 C-291.59448242 56.47037109 -291.59448242 55.81037109 -291.59448242 55.13037109 C-288.62448242 54.47037109 -285.65448242 53.81037109 -282.59448242 53.13037109 C-282.59448242 52.47037109 -282.59448242 51.81037109 -282.59448242 51.13037109 C-279.29448242 50.47037109 -275.99448242 49.81037109 -272.59448242 49.13037109 C-272.59448242 48.47037109 -272.59448242 47.81037109 -272.59448242 47.13037109 C-269.29448242 46.47037109 -265.99448242 45.81037109 -262.59448242 45.13037109 C-262.59448242 44.47037109 -262.59448242 43.81037109 -262.59448242 43.13037109 C-258.96448242 42.47037109 -255.33448242 41.81037109 -251.59448242 41.13037109 C-251.59448242 40.47037109 -251.59448242 39.81037109 -251.59448242 39.13037109 C-250.97959961 39.00919922 -250.3647168 38.88802734 -249.73120117 38.76318359 C-248.92295898 38.59560547 -248.1147168 38.42802734 -247.28198242 38.25537109 C-246.0812207 38.01173828 -246.0812207 38.01173828 -244.85620117 37.76318359 C-242.34147124 37.1855811 -242.34147124 37.1855811 -239.59448242 35.13037109 C-237.64916992 34.60302734 -237.64916992 34.60302734 -235.46948242 34.19287109 C-229.93011458 33.04555866 -224.67652469 31.27730393 -219.37963867 29.30615234 C-213.79839797 27.29533627 -208.50987262 26.48850536 -202.59448242 26.13037109 C-202.59448242 25.47037109 -202.59448242 24.81037109 -202.59448242 24.13037109 C-191.07284233 21.83424353 -191.07284233 21.83424353 -185.59448242 22.13037109 C-185.59448242 21.47037109 -185.59448242 20.81037109 -185.59448242 20.13037109 C-179.5263272 18.90137763 -173.79553054 17.85476895 -167.59448242 18.13037109 C-167.59448242 17.47037109 -167.59448242 16.81037109 -167.59448242 16.13037109 C-165.40795503 15.79071635 -163.22020217 15.45894632 -161.03198242 15.13037109 C-159.81381836 14.94474609 -158.5956543 14.75912109 -157.34057617 14.56787109 C-153.71820394 14.14482032 -150.23736196 14.05535684 -146.59448242 14.13037109 C-146.59448242 13.47037109 -146.59448242 12.81037109 -146.59448242 12.13037109 C-129.88605418 9.83424353 -129.88605418 9.83424353 -121.59448242 10.13037109 C-121.59448242 9.47037109 -121.59448242 8.81037109 -121.59448242 8.13037109 C-120.98564209 8.08025879 -120.37680176 8.03014648 -119.74951172 7.97851562 C-116.92651204 7.74297635 -114.10427723 7.49920572 -111.28198242 7.25537109 C-110.32485352 7.17673828 -109.36772461 7.09810547 -108.3815918 7.01708984 C-103.68315824 6.60577916 -99.11031461 6.0760896 -94.48901367 5.12646484 C-86.60601532 3.61351627 -78.59508003 3.44436015 -70.59448242 3.06787109 C-68.20254549 2.95200788 -65.81077284 2.83402721 -63.41918945 2.71107483 C-61.94251875 2.63544645 -60.46562641 2.56399699 -58.98852539 2.49729919 C-55.96697853 2.3450367 -53.48263156 2.09308747 -50.59448242 1.13037109 C-47.54611856 0.88942799 -44.51919826 0.70747342 -41.46557617 0.57568359 C-40.50671005 0.533638 -39.54784393 0.49159241 -38.55992126 0.44827271 C-25.71173611 -0.05343494 -12.85573129 -0.02040432 0 0 Z " fill="#FEFEFE" transform="translate(442.594482421875,6.86962890625)"/>
</svg>
