<?xml version="1.0" encoding="UTF-8"?>
<svg xmlns="http://www.w3.org/2000/svg" xmlns:xlink="http://www.w3.org/1999/xlink" width="886px" height="1860px" viewBox="0 0 886 1860" version="1.1">
<g id="surface1">
<path style=" stroke:none;fill-rule:evenodd;fill:rgb(100%,100%,100%);fill-opacity:1;" d="M 428.160156 88.914062 C 427.996094 89.113281 420.65625 89.628906 411.851562 90.058594 C 315.433594 94.757812 225.542969 124.105469 171.601562 168.480469 C 130.644531 202.175781 108.695312 250.335938 103.871094 317.089844 C 102.320312 338.515625 102.664062 1576.21875 104.222656 1592.382812 C 110.785156 1660.425781 137.121094 1702.988281 189.484375 1730.175781 C 301.25 1788.207031 539.257812 1794.90625 669.8125 1743.699219 C 737.324219 1717.222656 769.40625 1677.917969 780.59375 1607.980469 C 783.449219 1590.125 783.835938 322.742188 780.992188 300.3125 C 765.953125 181.738281 686.332031 115.78125 532.550781 94.515625 C 505.964844 90.835938 429.980469 86.765625 428.160156 88.914062 "/>
</g>
</svg>
