<?xml version="1.0" encoding="UTF-8"?>
<svg xmlns="http://www.w3.org/2000/svg" xmlns:xlink="http://www.w3.org/1999/xlink" width="283px" height="604px" viewBox="0 0 283 604" version="1.1">
<g id="surface1">
<path style=" stroke:none;fill-rule:evenodd;fill:rgb(100%,100%,100%);fill-opacity:1;" d="M 136.761719 28.875 C 136.707031 28.9375 134.363281 29.105469 131.550781 29.246094 C 100.753906 30.773438 72.042969 40.300781 54.8125 54.710938 C 41.730469 65.652344 34.71875 81.292969 33.175781 102.96875 C 32.683594 109.925781 32.792969 511.847656 33.289062 517.097656 C 35.386719 539.191406 43.796875 553.011719 60.523438 561.84375 C 96.222656 580.6875 172.246094 582.863281 213.945312 566.234375 C 235.511719 557.632812 245.757812 544.871094 249.332031 522.160156 C 250.242188 516.363281 250.367188 104.804688 249.457031 97.519531 C 244.65625 59.015625 219.222656 37.597656 170.105469 30.691406 C 161.613281 29.5 137.339844 28.175781 136.761719 28.875 "/>
</g>
</svg>
